<?xml version="1.0" standalone="no"?>
<!DOCTYPE svg PUBLIC "-//W3C//DTD SVG 20010904//EN"
 "http://www.w3.org/TR/2001/REC-SVG-20010904/DTD/svg10.dtd">
<svg version="1.0" xmlns="http://www.w3.org/2000/svg"
 width="240.000000pt" height="240.000000pt" viewBox="0 0 240.000000 240.000000"
 preserveAspectRatio="xMidYMid meet">
<metadata>
Created by potrace 1.11, written by Peter Selinger 2001-2013
</metadata>
<g transform="translate(0.000000,240.000000) scale(0.100000,-0.100000)"
fill="#000000" stroke="none">
<path d="M1040 2177 c-86 -51 -251 -148 -368 -216 l-212 -125 0 -306 0 -307
-22 1 -23 1 0 -195 c0 -194 0 -195 22 -198 22 -3 23 -7 25 -144 l3 -141 360
-208 c198 -115 367 -207 375 -206 9 1 179 94 378 207 l361 205 1 142 c0 139 0
142 23 145 22 3 22 3 22 198 l0 195 -22 -2 -23 -3 -2 312 -3 312 -368 213
c-203 117 -369 213 -370 213 -1 -1 -72 -42 -157 -93z m57 -567 c193 -44 364
-80 379 -80 15 0 71 14 125 32 l96 31 49 -24 c70 -35 81 -68 64 -199 -12 -89
-11 -104 4 -143 9 -24 28 -54 41 -67 24 -23 25 -28 25 -152 l0 -128 -187 -150
c-104 -82 -195 -150 -204 -150 -9 0 -135 25 -280 56 l-264 56 -46 -53 -47 -52
-30 24 c-16 13 -89 74 -161 134 l-131 110 0 140 0 141 39 38 c57 56 65 99 48
260 -15 130 -11 172 17 208 17 23 65 48 91 48 11 0 179 -36 372 -80z m47
-1054 c132 -31 174 -51 153 -72 -11 -11 -297 23 -313 37 -15 12 -19 51 -7 62
10 10 16 9 167 -27z"/>
<path d="M863 1215 c-11 -30 12 -36 133 -33 111 3 119 4 119 23 0 19 -8 20
-123 23 -105 2 -123 0 -129 -13z"/>
<path d="M1293 1215 c-11 -30 12 -36 133 -33 111 3 119 4 119 23 0 19 -8 20
-123 23 -105 2 -123 0 -129 -13z"/>
<path d="M902 1098 c-16 -16 -16 -150 0 -166 16 -16 150 -16 166 0 15 15 16
132 2 159 -9 16 -22 19 -83 19 -44 0 -78 -5 -85 -12z"/>
<path d="M1332 1098 c-7 -7 -12 -41 -12 -83 0 -42 5 -76 12 -83 7 -7 41 -12
85 -12 86 0 93 7 93 99 0 80 -12 91 -99 91 -39 0 -72 -5 -79 -12z"/>
</g>
</svg>
